<svg width="187" height="215" viewBox="0 0 187 215" fill="none" xmlns="http://www.w3.org/2000/svg">
<g id="Group 64">
<g id="Group 7">
<g id="Group 3">
<path id="Oval" opacity="0.12" fill-rule="evenodd" clip-rule="evenodd" d="M117.474 139.977C79.0764 139.977 47.9487 108.757 47.9487 70.2462C47.9487 31.7352 79.0764 0.515869 117.474 0.515869C155.872 0.515869 187 31.7352 187 70.2462C187 108.757 155.872 139.977 117.474 139.977Z" fill="#FF3378"/>
</g>
<g id="Group 6">
<path id="Fill 4" opacity="0.488049" fill-rule="evenodd" clip-rule="evenodd" d="M7.7146 209.092C7.7146 206.761 43.0846 204.869 86.7146 204.869C130.346 204.869 165.715 206.761 165.715 209.092C165.715 211.423 130.346 213.314 86.7146 213.314C43.0846 213.314 7.7146 211.423 7.7146 209.092Z" fill="#CEE5ED"/>
</g>
</g>
<path id="Fill 8" fill-rule="evenodd" clip-rule="evenodd" d="M98.586 193.319L97.9555 197.299L100.928 201.223L108.653 197.561L109.534 193.925L100.002 192.345L98.586 193.319Z" fill="#F2BF75"/>
<g id="Group 63">
<path id="Fill 9" fill-rule="evenodd" clip-rule="evenodd" d="M104.604 206.238L105.409 205.264C105.557 205.086 105.83 205.086 105.977 205.264L106.76 206.211C107.077 206.594 107.548 206.814 108.044 206.814L125.876 206.754C126.22 206.41 126.318 205.812 125.925 205.402C123.348 202.721 109.348 197.955 108.653 197.561C107.958 197.166 103.611 200.459 97.9556 197.298C97.9556 197.298 96.9715 201.762 96.7989 204.66C96.7281 205.845 97.6452 206.849 98.8283 206.844L103.353 206.828C103.837 206.827 104.294 206.612 104.604 206.238Z" fill="#1E394C"/>
<path id="Fill 11" fill-rule="evenodd" clip-rule="evenodd" d="M70.0113 193.48L69.382 197.461L72.3548 201.384L80.0794 197.722L80.9592 194.086L71.4282 192.506L70.0113 193.48Z" fill="#F2BF75"/>
<path id="Fill 13" fill-rule="evenodd" clip-rule="evenodd" d="M76.0293 206.398L76.8361 205.425C76.9835 205.247 77.2556 205.247 77.4031 205.426L78.187 206.373C78.5023 206.755 78.9734 206.976 79.4697 206.974L97.3018 206.914C97.647 206.57 97.7441 205.973 97.3509 205.563C94.7737 202.882 80.7739 198.116 80.0786 197.722C79.3834 197.326 75.038 200.619 69.3813 197.46C69.3813 197.46 68.3971 201.922 68.2245 204.821C68.1538 206.005 69.0708 207.009 70.2539 207.006L74.7791 206.99C75.2622 206.988 75.7201 206.772 76.0293 206.398Z" fill="#1E394C"/>
<path id="Fill 15" fill-rule="evenodd" clip-rule="evenodd" d="M111.132 64.6372L116.56 85.418L131.334 75.5284L138.018 80.8507L118.729 98.9602L104.856 86.0516L111.132 64.6372Z" fill="#CEE5ED"/>
<path id="Fill 17" fill-rule="evenodd" clip-rule="evenodd" d="M131.357 75.5339L135.655 67.0244C136.125 66.1167 137.259 65.7909 138.137 66.3114C140.521 67.7289 141.752 70.5121 141.171 73.2292C140.587 75.9474 139.603 79.1611 138.019 80.8514L131.357 75.5339Z" fill="#F2BF75"/>
<path id="Fill 19" fill-rule="evenodd" clip-rule="evenodd" d="M136.671 59.1083L141.385 58.7236C142.068 58.6671 142.506 59.1083 142.356 59.7035L139.013 72.9883C138.863 73.5834 138.181 74.116 137.496 74.1713L132.782 74.5572C131.684 74.6462 131.051 76.5986 131.811 73.5762L135.154 60.2914C135.304 59.6974 135.986 59.1649 136.671 59.1083Z" fill="#1E394C"/>
<path id="Fill 21" fill-rule="evenodd" clip-rule="evenodd" d="M131.337 75.5683L130.349 72.4124C129.932 71.6105 130.176 70.6223 130.916 70.1065L132.554 68.9656C133.043 68.6253 133.709 68.7083 134.1 69.1579C134.543 69.6653 134.467 70.4419 133.936 70.8555L133.182 71.441L132.412 72.0241L134.238 74.7881L131.337 75.5683Z" fill="#F2BF75"/>
<path id="Fill 23" fill-rule="evenodd" clip-rule="evenodd" d="M70.0584 194.407C70.0584 189.763 74.4358 112.477 74.4358 112.477C74.4358 112.477 85.2962 101.874 91.2059 102.997C97.1156 101.874 110.552 109.735 110.552 109.735C110.552 109.735 109.272 189.763 109.272 194.407H98.4728C98.4728 194.407 96.3829 159.559 91.3938 132.947C91.1709 131.758 91.3572 131.64 91.1342 132.83C86.144 159.441 80.8583 194.407 80.8583 194.407H70.0584Z" fill="#1E394C"/>
<path id="Fill 25" fill-rule="evenodd" clip-rule="evenodd" d="M90.9607 52.0823C90.9607 52.0823 75.8508 55.79 73.7603 58.2089C71.6709 60.6266 63.8145 75.7016 63.956 80.7799C64.1202 86.725 74.2817 99.416 74.0827 98.6742V116.582C74.0827 116.582 97.2288 123.837 111.214 114.969C111.214 114.969 112.817 68.9775 110.893 63.8511C110.301 62.2761 102.695 55.6289 100.445 54.8234C98.1937 54.0167 90.9607 52.0823 90.9607 52.0823Z" fill="#CEE5ED"/>
<path id="Fill 27" fill-rule="evenodd" clip-rule="evenodd" d="M63.9568 80.7795C64.1018 86.0802 72.2027 96.7501 73.809 98.4669C73.8138 98.4717 73.8138 98.4717 73.8198 98.4765C73.9924 98.6064 74.0835 98.6749 74.0835 98.6749L79.1865 103.27L85.3347 97.7071C85.3347 97.7071 74.002 89.6064 75.5699 79.2069C76.6728 71.89 84.2499 58.7735 84.2499 58.7735C86.8535 57.2984 89.4044 54.6186 91.3774 52.1948C91.1113 52.1227 90.9627 52.0842 90.9627 52.0842C90.9627 52.0842 75.8492 55.7884 73.7611 58.2073C71.6729 60.625 63.8177 75.7012 63.9568 80.7795Z" fill="#CEE5ED"/>
<path id="Fill 29" fill-rule="evenodd" clip-rule="evenodd" d="M115.924 76.8828C118.939 76.8828 121.382 79.333 121.382 82.3554V111.125C121.382 114.149 118.939 116.599 115.924 116.599H66.0768C63.0621 116.599 60.6191 114.149 60.6191 111.125V82.3554C60.6191 79.333 63.0621 76.8828 66.0768 76.8828H115.924Z" fill="#FF3378"/>
<path id="Fill 31" opacity="0.24" fill-rule="evenodd" clip-rule="evenodd" d="M72.5259 76.8828C69.5123 76.8828 67.0693 79.333 67.0693 82.3554V111.125C67.0693 114.149 69.5123 116.599 72.5259 116.599H66.0768C63.062 116.599 60.619 114.149 60.619 111.125V82.3554C60.619 79.333 63.062 76.8828 66.0768 76.8828H72.5259Z" fill="black"/>
<path id="Fill 33" fill-rule="evenodd" clip-rule="evenodd" d="M121.382 91.3012H60.6205V83.4709H121.382V91.3012Z" fill="#1E394C"/>
<path id="Fill 35" fill-rule="evenodd" clip-rule="evenodd" d="M115.612 102.543H103.646V100.884H115.612V102.543Z" fill="#1E394C"/>
<path id="Fill 36" fill-rule="evenodd" clip-rule="evenodd" d="M115.61 106.246H109.825V104.587H115.61V106.246Z" fill="#1E394C"/>
<path id="Fill 37" fill-rule="evenodd" clip-rule="evenodd" d="M90.1572 43.6589V54.4202C90.1572 54.4202 93.6538 65.1816 101.731 56.7177L102.454 48.1325L90.1572 43.6589Z" fill="#EA9249"/>
<path id="Fill 38" fill-rule="evenodd" clip-rule="evenodd" d="M111.134 35.2349C111.134 35.2349 124.797 32.3326 116.358 20.6444C116.358 20.6444 114.911 26.8516 107.518 21.5316C103.749 18.8206 98.1592 18.1413 91.9247 21.5316C85.2538 25.1588 82.9235 36.2832 88.6306 42.0865L99.8015 39.8298L111.134 35.2349Z" fill="#1E394C"/>
<path id="Fill 39" fill-rule="evenodd" clip-rule="evenodd" d="M111.134 35.235C111.134 35.235 112.742 53.8554 100.445 52.6471C90.8398 51.7021 91.2018 44.4249 91.2018 44.4249C91.2018 44.4249 88.0671 43.7793 87.9065 40.9589C87.7459 38.1372 88.6305 35.7988 91.4427 37.6539C91.4427 37.6539 96.4258 34.4295 96.7483 32.1716C96.7483 32.1716 102.615 35.3961 111.134 35.235Z" fill="#F2BF75"/>
<path id="Fill 40" fill-rule="evenodd" clip-rule="evenodd" d="M94.925 115.251C95.5447 116.019 95.3289 117.242 94.4203 117.981L92.3357 119.675C91.4283 120.412 90.19 120.369 89.5703 119.602L83.0241 111.43L89.285 106.6L96.0925 111.422C96.5684 111.765 96.566 112.491 96.0721 112.806C95.7821 112.991 95.4069 113.113 94.9442 113.041C93.6591 112.839 93.1377 112.115 93.1377 112.115L94.925 115.251Z" fill="#F6BA8E"/>
<path id="Fill 41" fill-rule="evenodd" clip-rule="evenodd" d="M90.4685 106.678L83.1587 112.579C83.1587 112.579 63.302 90.5465 63.2204 82.1248C63.1749 77.3879 68.9108 65.9822 72.5045 59.8291H85.3728C85.3728 59.8291 76.1918 73.6886 73.4215 80.337C72.8953 81.6006 73.0511 83.0421 73.8243 84.171C77.1759 89.0726 87.0785 103.409 90.4685 106.678Z" fill="#CEE5ED"/>
<path id="Fill 42" fill-rule="evenodd" clip-rule="evenodd" d="M72.5047 59.8289C72.5047 59.8289 65.171 78.0669 65.2057 81.7254C65.2765 88.9773 81.1427 106.224 85.2351 110.903L83.1589 112.579C83.1589 112.579 63.3022 90.5463 63.2207 82.1245C63.1751 77.3877 68.911 65.982 72.5047 59.8289Z" fill="#B4CCD3"/>
<path id="Fill 43" fill-rule="evenodd" clip-rule="evenodd" d="M75.3224 76.7344L75.7275 76.8786H108.898L109.352 76.7344L78.1693 75.9325C78.1693 75.9325 82.2186 64.659 81.5833 64.9776C80.9372 65.307 75.3224 76.7344 75.3224 76.7344Z" fill="#B4CCD3"/>
<path id="Fill 44" fill-rule="evenodd" clip-rule="evenodd" d="M105.729 49.9313C107.041 48.5415 107.228 46.0613 107.228 46.0613C107.228 46.0613 108.689 46.0613 108.876 45.8737C109.063 45.6862 108.426 40.5393 108.539 39.6365C108.618 39.0017 108.951 36.519 109.138 35.1665C109.976 35.217 110.233 35.2519 111.134 35.235C111.134 35.235 112.742 53.8554 100.444 52.6472C103.439 52.6941 104.418 51.3211 105.729 49.9313Z" fill="#EA9249"/>
<path id="Fill 46" fill-rule="evenodd" clip-rule="evenodd" d="M8.57693 155.167C4.79857 151.151 3.86237 145.879 6.48996 143.393C9.11516 140.907 14.3092 142.146 18.0888 146.163C21.8683 150.18 24.5594 157.318 21.933 159.804C19.3067 162.29 12.3565 159.183 8.57693 155.167Z" fill="#198B20"/>
<path id="Fill 47" fill-rule="evenodd" clip-rule="evenodd" d="M6.48977 143.393C7.30489 142.621 8.36696 142.21 9.55848 142.128C9.43262 142.223 9.30675 142.316 9.19048 142.425C6.56409 144.912 7.49909 150.183 11.2786 154.199C14.122 157.22 18.7586 159.726 21.9988 159.723C21.976 159.749 21.958 159.78 21.9328 159.804C19.3065 162.29 12.3575 159.183 8.57673 155.167C4.79838 151.151 3.86337 145.879 6.48977 143.393Z" fill="black" fill-opacity="0.24"/>
<path id="Fill 48" fill-rule="evenodd" clip-rule="evenodd" d="M27.7929 139.705C27.287 134.288 29.5789 129.642 32.9126 129.329C36.245 129.016 39.3557 133.155 39.8604 138.572C40.3662 143.99 38.3092 151.154 34.9768 151.466C31.6443 151.779 28.2975 145.122 27.7929 139.705Z" fill="#0DCC18"/>
<path id="Fill 49" fill-rule="evenodd" clip-rule="evenodd" d="M32.9119 129.329C33.534 129.271 34.1477 129.368 34.7375 129.6C32.0044 130.697 30.2423 134.892 30.6918 139.704C31.1102 144.191 33.4788 149.515 36.1724 151.039C35.7948 151.279 35.3956 151.426 34.9772 151.466C31.6436 151.779 28.2968 145.123 27.7921 139.704C27.2875 134.287 29.5794 129.642 32.9119 129.329Z" fill="black" fill-opacity="0.24"/>
<path id="Fill 50" fill-rule="evenodd" clip-rule="evenodd" d="M44.0153 135.543C46.3277 130.98 50.4764 128.44 53.2814 129.87C56.0888 131.3 56.4916 136.158 54.1793 140.722C51.8693 145.284 46.6453 149.944 43.8403 148.515C41.0329 147.084 41.7042 140.105 44.0153 135.543Z" fill="#198B20"/>
<path id="Fill 51" fill-rule="evenodd" clip-rule="evenodd" d="M44.0152 135.543C46.3276 130.98 50.4763 128.44 53.2813 129.87C54.3566 130.418 55.0758 131.469 55.4282 132.812C55.1717 132.567 54.8876 132.354 54.5687 132.192C51.7613 130.761 47.6126 133.302 45.3015 137.864C43.6796 141.068 42.8705 145.455 43.4998 148.284C41.1023 146.468 41.8048 139.907 44.0152 135.543Z" fill="black" fill-opacity="0.24"/>
<path id="Fill 52" fill-rule="evenodd" clip-rule="evenodd" d="M48.4801 154.613C52.9345 152.611 57.4813 153.086 58.6368 155.671C59.7912 158.257 57.1157 161.975 52.66 163.976C48.2056 165.976 41.5887 166.433 40.4343 163.847C39.2787 161.262 44.0245 156.614 48.4801 154.613Z" fill="#0DCC18"/>
<path id="Fill 53" fill-rule="evenodd" clip-rule="evenodd" d="M48.4799 154.613C52.9344 152.611 57.4811 153.085 58.6367 155.671C58.9052 156.274 58.9579 156.941 58.8369 157.633C57.6058 155.14 53.1298 154.703 48.7365 156.677C45.1523 158.287 41.3835 161.61 40.6499 164.195C40.5684 164.084 40.4893 163.972 40.4341 163.847C39.2786 161.261 44.0243 156.614 48.4799 154.613Z" fill="black" fill-opacity="0.24"/>
<path id="Fill 54" fill-rule="evenodd" clip-rule="evenodd" d="M7.35597 170.381C2.90873 168.793 0.145683 165.134 1.18497 162.209C2.22426 159.282 6.6715 158.199 11.1187 159.787C15.5672 161.377 20.3968 165.774 19.3575 168.699C18.3194 171.625 11.8032 171.97 7.35597 170.381Z" fill="#198B20"/>
<path id="Fill 55" fill-rule="evenodd" clip-rule="evenodd" d="M1.18442 162.208C1.63034 160.954 2.70559 160.04 4.13566 159.528C3.61422 159.985 3.21385 160.533 2.98609 161.177C1.94681 164.102 4.70865 167.761 9.1559 169.349C12.1647 170.424 16.1145 170.611 18.6809 169.715C16.6431 171.679 11.2213 171.762 7.35542 170.381C2.90818 168.793 0.146332 165.133 1.18442 162.208Z" fill="black" fill-opacity="0.24"/>
<path id="Fill 56" fill-rule="evenodd" clip-rule="evenodd" d="M30.491 186.459C29.4613 173.76 23.9232 162.225 14.6847 153.478C14.3239 153.135 14.8705 152.588 15.2313 152.931C24.6197 161.822 30.2165 173.553 31.2642 186.459C31.3037 186.956 30.5317 186.952 30.491 186.459Z" fill="#1E394C"/>
<path id="Fill 57" fill-rule="evenodd" clip-rule="evenodd" d="M33.2992 184.652C32.9828 168.997 37.8843 153.978 47.3926 141.553C47.6898 141.164 48.3599 141.548 48.059 141.944C38.6299 154.266 33.7571 169.122 34.0712 184.652C34.0808 185.15 33.31 185.15 33.2992 184.652Z" fill="#1E394C"/>
<path id="Fill 58" fill-rule="evenodd" clip-rule="evenodd" d="M36.5608 161.922C34.457 155.199 33.9188 148.059 33.6611 141.052C33.6431 140.554 34.4151 140.554 34.4331 141.052C34.6884 147.996 35.2206 155.055 37.3052 161.716C37.4538 162.192 36.7094 162.396 36.5608 161.922Z" fill="#1E394C"/>
<path id="Fill 59" fill-rule="evenodd" clip-rule="evenodd" d="M48.5527 160.626C44.8391 162.967 40.5069 164.753 36.4109 166.312C35.9458 166.487 35.7444 165.739 36.2059 165.564C40.2324 164.033 44.5094 162.261 48.1631 159.958C48.5851 159.692 48.9735 160.362 48.5527 160.626Z" fill="#1E394C"/>
<path id="Fill 60" fill-rule="evenodd" clip-rule="evenodd" d="M15.6779 166.654C19.3952 168.21 23.1951 169.484 27.0993 170.481C27.58 170.603 27.3762 171.35 26.8931 171.227C22.9913 170.229 19.1902 168.956 15.4718 167.399C15.021 167.211 15.2188 166.462 15.6779 166.654Z" fill="#1E394C"/>
<path id="Fill 61" fill-rule="evenodd" clip-rule="evenodd" d="M46.2349 182.862L43.8902 204.153C43.5977 206.814 41.3549 208.829 38.6854 208.829H25.153C22.4835 208.829 20.2407 206.814 19.947 204.153L17.6035 182.862C17.4764 181.703 18.3803 180.691 19.5418 180.691H44.2966C45.4593 180.691 46.3619 181.703 46.2349 182.862Z" fill="#CEE5ED"/>
<path id="Fill 62" fill-rule="evenodd" clip-rule="evenodd" d="M19.5423 180.691H28.1251C26.9624 180.691 26.0585 181.703 26.1856 182.862L28.5303 204.153C28.824 206.815 31.0656 208.828 33.7363 208.828H25.1535C22.4828 208.828 20.2412 206.815 19.9475 204.153L17.604 182.862C17.4757 181.703 18.3796 180.691 19.5423 180.691Z" fill="#AAC6CE"/>
</g>
</g>
</svg>
