<svg xmlns="http://www.w3.org/2000/svg" width="25" height="25" viewBox="0 0 25 25" fill="rgba(28,32,46, 0.34)">
<path fill-rule="evenodd" clip-rule="evenodd" d="M9.80658 16.6984V9.14871C9.80658 8.11063 10.6491 7.2613 11.6998 7.2613H20.2195V6.31759C20.2195 5.27951 19.3675 4.43018 18.3262 4.43018H5.07343C4.02268 4.43018 3.18018 5.27951 3.18018 6.31759V19.5295C3.18018 20.5676 4.02268 21.4169 5.07343 21.4169H18.3262C19.3675 21.4169 20.2195 20.5676 20.2195 19.5295V18.5858H11.6998C10.6491 18.5858 9.80658 17.7364 9.80658 16.6984ZM12.6465 9.14871C12.1258 9.14871 11.6998 9.57338 11.6998 10.0924V15.7547C11.6998 16.2737 12.1258 16.6984 12.6465 16.6984H21.1661V9.14871H12.6465ZM15.4864 14.3391C14.7006 14.3391 14.0664 13.7068 14.0664 12.9235C14.0664 12.1403 14.7006 11.508 15.4864 11.508C16.2721 11.508 16.9063 12.1403 16.9063 12.9235C16.9063 13.7068 16.2721 14.3391 15.4864 14.3391Z" fill="inherit"/>
</svg>