<svg xmlns="http://www.w3.org/2000/svg" width="25" height="25" viewBox="0 0 25 25" fill="rgba(28,32,46, 0.34)">
<path fill-rule="evenodd" clip-rule="evenodd" d="M3.11865 5.42935V19.4184C3.11865 20.5176 4.00796 21.4169 5.11709 21.4169H19.1062C20.2053 21.4169 21.1046 20.5176 21.1046 19.4184V5.42935C21.1046 4.33021 20.2053 3.43091 19.1062 3.43091H5.11709C4.00796 3.43091 3.11865 4.33021 3.11865 5.42935ZM15.1093 9.42622C15.1093 11.0849 13.7703 12.4239 12.1116 12.4239C10.4529 12.4239 9.11397 11.0849 9.11397 9.42622C9.11397 7.76752 10.4529 6.42857 12.1116 6.42857C13.7703 6.42857 15.1093 7.76752 15.1093 9.42622ZM6.11631 17.42C6.11631 15.4215 10.1132 14.3224 12.1116 14.3224C14.1101 14.3224 18.1069 15.4215 18.1069 17.42V18.4192H6.11631V17.42Z" fill="inherit"/>
</svg>