<svg width="25" height="24" viewBox="0 0 25 24" fill="none" xmlns="http://www.w3.org/2000/svg">
<g id="Outlined / Action / search">
<path id="&#240;&#159;&#148;&#185; Icon Color" fill-rule="evenodd" clip-rule="evenodd" d="M17.2778 15.3622H16.4618L16.1725 15.0833C17.1848 13.9057 17.7942 12.377 17.7942 10.714C17.7942 7.00581 14.7884 4 11.0802 4C7.37202 4 4.36621 7.00581 4.36621 10.714C4.36621 14.4222 7.37202 17.428 11.0802 17.428C12.7432 17.428 14.272 16.8186 15.4495 15.8063L15.7284 16.0955V16.9116L18.8272 20L20.3662 18.4609L17.2778 15.3622ZM11.0802 15.3622C8.50824 15.3622 6.43206 13.286 6.43206 10.714C6.43206 8.14203 8.50824 6.06585 11.0802 6.06585C13.6522 6.06585 15.7284 8.14203 15.7284 10.714C15.7284 13.286 13.6522 15.3622 11.0802 15.3622Z" fill="#1D1D1D"/>
</g>
</svg>
