<svg xmlns="http://www.w3.org/2000/svg" width="25" height="24" viewBox="0 0 25 24" fill="none">
<path fill-rule="evenodd" clip-rule="evenodd" d="M19.7961 12.98C19.8361 12.66 19.8661 12.34 19.8661 12C19.8661 11.66 19.8361 11.34 19.7961 11.02L21.906 9.37C22.0961 9.22 22.1461 8.95 22.0261 8.73L20.0261 5.27C19.9361 5.11 19.7661 5.02 19.5861 5.02C19.5261 5.02 19.466 5.03 19.416 5.05L16.9261 6.05C16.406 5.65 15.8461 5.32 15.2361 5.07L14.8561 2.42C14.8261 2.18 14.6161 2 14.3661 2H10.3661C10.1161 2 9.90605 2.18 9.87605 2.42L9.49605 5.07C8.88605 5.32 8.32605 5.66 7.80605 6.05L5.31605 5.05C5.25605 5.03 5.19605 5.02 5.13605 5.02C4.96605 5.02 4.79605 5.11 4.70605 5.27L2.70605 8.73C2.57605 8.95 2.63605 9.22 2.82605 9.37L4.93605 11.02C4.89605 11.34 4.86605 11.67 4.86605 12C4.86605 12.33 4.89605 12.66 4.93605 12.98L2.82605 14.63C2.63605 14.78 2.58605 15.05 2.70605 15.27L4.70605 18.73C4.79605 18.89 4.96605 18.98 5.14605 18.98C5.20605 18.98 5.26605 18.97 5.31605 18.95L7.80605 17.95C8.32605 18.35 8.88605 18.68 9.49605 18.93L9.87605 21.58C9.90605 21.82 10.1161 22 10.3661 22H14.3661C14.6161 22 14.8261 21.82 14.8561 21.58L15.2361 18.93C15.8461 18.68 16.406 18.34 16.9261 17.95L19.416 18.95C19.476 18.97 19.5361 18.98 19.5961 18.98C19.7661 18.98 19.9361 18.89 20.0261 18.73L22.0261 15.27C22.1461 15.05 22.0961 14.78 21.906 14.63L19.7961 12.98ZM17.816 11.27C17.856 11.58 17.866 11.79 17.866 12C17.866 12.21 17.8461 12.43 17.816 12.73L17.6761 13.86L18.566 14.56L19.6461 15.4L18.9461 16.61L17.6761 16.1L16.6361 15.68L15.736 16.36C15.3061 16.68 14.896 16.92 14.486 17.09L13.4261 17.52L13.2661 18.65L13.0661 20H11.666L11.4761 18.65L11.3161 17.52L10.2561 17.09C9.82605 16.91 9.42605 16.68 9.02605 16.38L8.11605 15.68L7.05605 16.11L5.78605 16.62L5.08605 15.41L6.16605 14.57L7.05605 13.87L6.91605 12.74C6.88605 12.43 6.86605 12.2 6.86605 12C6.86605 11.8 6.88605 11.57 6.91605 11.27L7.05605 10.14L6.16605 9.44L5.08605 8.6L5.78605 7.39L7.05605 7.9L8.09605 8.32L8.99605 7.64C9.42605 7.32 9.83605 7.08 10.246 6.91L11.3061 6.48L11.4661 5.35L11.666 4H13.0561L13.246 5.35L13.406 6.48L14.4661 6.91C14.8961 7.09 15.2961 7.32 15.696 7.62L16.6061 8.32L17.666 7.89L18.9361 7.38L19.6361 8.59L18.566 9.44L17.6761 10.14L17.816 11.27ZM12.366 8C10.1561 8 8.36605 9.79 8.36605 12C8.36605 14.21 10.1561 16 12.366 16C14.576 16 16.366 14.21 16.366 12C16.366 9.79 14.576 8 12.366 8ZM12.366 14C11.2661 14 10.3661 13.1 10.3661 12C10.3661 10.9 11.2661 10 12.366 10C13.4661 10 14.366 10.9 14.366 12C14.366 13.1 13.4661 14 12.366 14Z" fill="#1D1D1D"/>
</svg>