<svg xmlns="http://www.w3.org/2000/svg" width="25" height="25" viewBox="0 0 25 25" fill="rgba(28,32,46, 0.34)">
<path fill-rule="evenodd" clip-rule="evenodd" d="M19.2683 3.43066H5.2792C4.18006 3.43066 3.28076 4.32996 3.28076 5.4291V19.4182C3.28076 20.5173 4.18006 21.4166 5.2792 21.4166H19.2683C20.3674 21.4166 21.2667 20.5173 21.2667 19.4182V5.4291C21.2667 4.32996 20.3674 3.43066 19.2683 3.43066ZM8.02705 17.4197C7.34009 17.4197 6.77803 16.9701 6.77803 16.4205V11.4244C6.77803 10.8748 7.34009 10.4252 8.02705 10.4252C8.71402 10.4252 9.27608 10.8748 9.27608 11.4244V16.4205C9.27608 16.9701 8.71402 17.4197 8.02705 17.4197ZM12.5235 17.4197C11.8366 17.4197 11.2745 16.9701 11.2745 16.4205V8.42676C11.2745 7.87719 11.8366 7.42754 12.5235 7.42754C13.2105 7.42754 13.7726 7.87719 13.7726 8.42676V16.4205C13.7726 16.9701 13.2105 17.4197 12.5235 17.4197ZM17.02 17.4197C16.3331 17.4197 15.771 16.9701 15.771 16.4205V14.4221C15.771 13.8725 16.3331 13.4229 17.02 13.4229C17.707 13.4229 18.2691 13.8725 18.2691 14.4221V16.4205C18.2691 16.9701 17.707 17.4197 17.02 17.4197Z" fill="inherit"/>
</svg>